<?xml version="1.0" encoding="utf-8"?>
<!-- Generator: Adobe Illustrator 24.2.2, SVG Export Plug-In . SVG Version: 6.00 Build 0)  -->
<svg version="1.1" xmlns="http://www.w3.org/2000/svg" xmlns:xlink="http://www.w3.org/1999/xlink" x="0px" y="0px"
	 viewBox="0 0 75 65" style="enable-background:new 0 0 75 65;" xml:space="preserve">
<style type="text/css">
	.st0{fill:#BCBEC0;}
	.st1{font-family:'Arial-BoldMT';}
	.st2{font-size:10.6966px;}
</style>
<g id="Layer_1">
	<path id="path5689" class="st0" d="M17.7,21.07h-4.9c0-0.8-0.09-1.34-0.28-1.62c-0.29-0.41-1.1-0.61-2.41-0.61
		c-1.28,0-2.13,0.12-2.54,0.35c-0.41,0.24-0.62,0.75-0.62,1.53c0,0.71,0.18,1.18,0.55,1.41c0.26,0.16,0.61,0.25,1.04,0.28l0.99,0.07
		c2.12,0.14,3.44,0.24,3.97,0.3c1.67,0.17,2.89,0.61,3.64,1.34c0.59,0.56,0.95,1.3,1.06,2.21c0.07,0.54,0.1,1.16,0.1,1.84
		c0,1.58-0.15,2.73-0.45,3.46c-0.55,1.34-1.77,2.19-3.68,2.54c-0.8,0.15-2.02,0.23-3.66,0.23c-2.74,0-4.65-0.16-5.73-0.49
		c-1.32-0.4-2.2-1.22-2.62-2.44c-0.24-0.68-0.35-1.82-0.35-3.41h4.9c0,0.18,0,0.31,0,0.41c0,0.85,0.24,1.4,0.73,1.64
		c0.34,0.17,0.75,0.26,1.22,0.27h1.8c0.92,0,1.51-0.05,1.76-0.14c0.45-0.18,0.75-0.46,0.89-0.86c0.07-0.24,0.11-0.56,0.11-0.94
		c0-0.86-0.31-1.39-0.94-1.57c-0.24-0.07-1.33-0.18-3.28-0.31c-1.57-0.11-2.65-0.22-3.26-0.32c-1.6-0.3-2.67-0.92-3.21-1.85
		c-0.47-0.8-0.7-2-0.7-3.61c0-1.23,0.13-2.21,0.38-2.95c0.25-0.74,0.66-1.3,1.23-1.69c0.83-0.59,1.88-0.94,3.17-1.04
		c1.07-0.09,2.26-0.14,3.56-0.14c2.06,0,3.52,0.12,4.39,0.35c2.13,0.57,3.2,2.18,3.2,4.81C17.75,20.32,17.74,20.64,17.7,21.07"/>
	<path id="path5693" class="st0" d="M39.24,34.39V14.83h7.67h1.2h0.93c1.35,0,2.37,0.11,3.08,0.33c1.61,0.51,2.7,1.54,3.25,3.1
		c0.29,0.82,0.43,2.06,0.43,3.71c0,1.98-0.16,3.41-0.47,4.28c-0.63,1.72-1.92,2.71-3.88,2.96c-0.23,0.04-1.21,0.07-2.94,0.1
		l-0.87,0.03h-3.14v5.05H39.24z M44.51,24.8h3.28c1.04-0.04,1.67-0.12,1.9-0.24c0.31-0.17,0.52-0.51,0.62-1.03
		c0.07-0.34,0.1-0.85,0.1-1.53c0-0.83-0.07-1.44-0.2-1.84c-0.19-0.56-0.64-0.9-1.36-1.03c-0.14-0.02-0.48-0.03-1.02-0.03h-3.33V24.8
		z"/>
	<path id="path5697" class="st0" d="M67.05,31.01h-7.04l-0.95,3.38h-5.45l5.88-19.56h7.94l5.95,19.56h-5.33L67.05,31.01z M66,27.2
		l-2.47-8.48l-2.39,8.48H66z"/>
	<path id="path5701" class="st0" d="M31.98,17.58c2.17,0,4.11,1,5.38,2.57l1.13-2.43C36.72,16.04,34.3,15,31.64,15
		c-4.15,0-7.7,2.51-9.15,6.05h-2.21l-1.31,2.8h2.85c-0.02,0.26-0.04,0.52-0.04,0.79c0,0.32,0.02,0.64,0.05,0.95h-1.43l-1.31,2.8
		h3.47c1.5,3.46,5,5.88,9.09,5.88c2.06,0,3.97-0.62,5.55-1.67v-3.43c-1.27,1.45-3.14,2.37-5.21,2.37c-2.43,0-4.56-1.25-5.8-3.15
		h7.26l1.31-2.8H25.1c-0.05-0.34-0.08-0.68-0.08-1.03c0-0.24,0.01-0.47,0.04-0.7h10.48l1.31-2.8H25.97
		C27.17,18.98,29.41,17.58,31.98,17.58"/>
	<path id="path5705" class="st0" d="M31.98,17.67c2.07,0,4.01,0.92,5.32,2.54l0.08,0.1l0.06-0.12l1.13-2.43l0.03-0.06l-0.04-0.04
		c-1.87-1.76-4.32-2.73-6.91-2.73c-2.02,0-3.97,0.59-5.63,1.71c-1.62,1.09-2.87,2.61-3.6,4.39l0.08-0.05h-2.21h-0.05l-0.02,0.05
		l-1.31,2.8l-0.06,0.12h0.13h2.85l-0.08-0.09c-0.02,0.29-0.04,0.55-0.04,0.79c0,0.31,0.02,0.64,0.05,0.96l0.08-0.09h-1.43h-0.05
		l-0.02,0.05l-1.31,2.8l-0.06,0.12h0.13h3.47l-0.08-0.05c1.56,3.61,5.16,5.93,9.16,5.93c2.01,0,3.94-0.58,5.6-1.68l0.04-0.02v-0.05
		v-3.43v-0.22l-0.15,0.17c-1.3,1.49-3.18,2.34-5.15,2.34c-2.31,0-4.46-1.16-5.73-3.11l-0.07,0.13h7.26h0.05l0.02-0.05l1.31-2.8
		l0.06-0.12h-0.13H25.1l0.08,0.07c-0.05-0.34-0.08-0.68-0.08-1.02c0-0.23,0.01-0.46,0.03-0.7l-0.08,0.08h10.48h0.05l0.02-0.05
		l1.31-2.8l0.06-0.12h-0.13H25.97l0.07,0.13C27.27,18.98,29.54,17.67,31.98,17.67 M25.97,21.14h10.88l-0.08-0.12l-1.31,2.8
		l0.08-0.05H25.06h-0.08l-0.01,0.08c-0.02,0.24-0.03,0.48-0.03,0.71c0,0.35,0.03,0.7,0.08,1.05l0.01,0.07h0.07h9.63l-0.08-0.12
		l-1.31,2.8l0.08-0.05h-7.26h-0.16l0.09,0.13c1.31,1.99,3.5,3.18,5.88,3.18c2.02,0,3.94-0.87,5.28-2.39l-0.15-0.06v3.43l0.04-0.07
		c-1.63,1.08-3.53,1.66-5.5,1.66c-3.94,0-7.47-2.29-9.01-5.83l-0.02-0.05h-0.05h-3.47l0.08,0.12l1.31-2.8l-0.08,0.05h1.43h0.09
		l-0.01-0.09c-0.03-0.32-0.05-0.63-0.05-0.94c0-0.24,0.01-0.49,0.04-0.78l0.01-0.09h-0.09h-2.85l0.08,0.12l1.31-2.8l-0.08,0.05h2.21
		h0.06l0.02-0.05c0.72-1.75,1.94-3.24,3.54-4.32c1.63-1.1,3.55-1.68,5.54-1.68c2.55,0,4.96,0.95,6.8,2.69l-0.02-0.1l-1.13,2.43
		l0.14-0.02c-1.34-1.65-3.33-2.6-5.45-2.6c-2.49,0-4.82,1.35-6.08,3.52l-0.07,0.13H25.97z"/>
	<text transform="matrix(1 0 0 1 1.7985 44.2083)" class="st0 st1 st2">Bank Transfer</text>
</g>
<g id="Layer_2">
</g>
</svg>
