<svg width="38" height="30" xmlns="http://www.w3.org/2000/svg" xmlns:xlink="http://www.w3.org/1999/xlink"><defs><path id="a" d="M.073.737h.64V.115h-.64v.622z"/><path id="c" d="M0 23.06V.067h18.627V23.06z"/></defs><g fill="none" fill-rule="evenodd"><path d="M6.39 26.162a1.128 1.128 0 0 0-.38-.25 1.275 1.275 0 0 0-.483-.089c-.092 0-.188.008-.288.024-.1.016-.197.044-.293.084-.095.04-.186.097-.272.168-.087.07-.162.16-.225.269a1.097 1.097 0 0 0-.418-.4 1.23 1.23 0 0 0-.602-.145c-.076 0-.155.007-.236.02a1.09 1.09 0 0 0-.242.072.977.977 0 0 0-.428.36v-.372h-.641v3.05h.647v-1.69c0-.13.02-.245.061-.346a.746.746 0 0 1 .165-.253.683.683 0 0 1 .242-.155.827.827 0 0 1 .296-.052c.218 0 .387.069.507.207.12.138.18.335.18.592v1.697h.648v-1.69c0-.13.02-.245.061-.346a.744.744 0 0 1 .165-.253.683.683 0 0 1 .242-.155.827.827 0 0 1 .296-.052c.217 0 .386.069.507.207.12.138.18.335.18.592v1.697h.647v-1.917c0-.178-.03-.341-.088-.49a1.116 1.116 0 0 0-.248-.384M9.778 27.816a.871.871 0 0 1-.478.514.916.916 0 0 1-.376.076.919.919 0 0 1-.387-.078.861.861 0 0 1-.288-.21.931.931 0 0 1-.181-.311 1.117 1.117 0 0 1-.064-.38c0-.133.021-.26.064-.378a.93.93 0 0 1 .181-.31.86.86 0 0 1 .288-.21.92.92 0 0 1 .387-.079c.138 0 .263.025.376.075a.87.87 0 0 1 .29.206c.08.087.143.19.188.309.044.119.066.248.066.388s-.022.27-.066.388zm.025-1.544a1.194 1.194 0 0 0-.395-.326 1.207 1.207 0 0 0-.563-.123 1.496 1.496 0 0 0-1.083.452 1.542 1.542 0 0 0-.325.508 1.722 1.722 0 0 0-.118.645c0 .234.04.448.118.645a1.49 1.49 0 0 0 1.407.96c.22 0 .407-.04.564-.121.157-.08.289-.19.395-.325v.366h.666v-3.05h-.666v.37zM13.528 27.423c-.187-.145-.447-.242-.78-.291l-.316-.048a2.814 2.814 0 0 1-.197-.037.64.64 0 0 1-.16-.055.305.305 0 0 1-.106-.09.219.219 0 0 1-.04-.133c0-.108.05-.196.151-.263.101-.067.243-.1.425-.1.096 0 .19.008.282.025.093.017.18.039.263.064a1.915 1.915 0 0 1 .398.172l.286-.519a1.957 1.957 0 0 0-.557-.237 2.64 2.64 0 0 0-.678-.085c-.195 0-.37.023-.525.069-.155.046-.287.11-.397.194a.845.845 0 0 0-.251.307.924.924 0 0 0-.088.408c0 .246.088.445.263.597.175.152.432.25.772.298l.318.041c.183.025.317.066.402.123.085.056.127.127.127.215 0 .114-.058.205-.175.272-.117.067-.29.1-.52.1-.124 0-.236-.008-.335-.025a1.681 1.681 0 0 1-.27-.069 1.307 1.307 0 0 1-.4-.218l-.31.5c.111.083.227.15.348.2a2.387 2.387 0 0 0 .961.192c.22 0 .415-.025.588-.074.173-.048.318-.117.436-.205a.869.869 0 0 0 .365-.718c0-.261-.094-.464-.28-.61M17.897 27.167c.017-.11.047-.212.09-.304a.817.817 0 0 1 .164-.239.689.689 0 0 1 .238-.154.866.866 0 0 1 .317-.055c.212 0 .386.066.52.198.133.132.218.316.254.554h-1.583zm1.862-.9a1.302 1.302 0 0 0-.456-.328 1.442 1.442 0 0 0-.584-.116c-.225 0-.43.039-.616.116a1.385 1.385 0 0 0-.48.328c-.133.142-.237.31-.311.508a1.84 1.84 0 0 0-.112.653c0 .242.038.462.115.66a1.427 1.427 0 0 0 .815.83c.191.077.401.115.63.115.232 0 .452-.032.661-.096.21-.063.407-.175.594-.334l-.331-.474c-.127.101-.268.18-.422.237a1.331 1.331 0 0 1-.46.084c-.109 0-.213-.015-.312-.044a.818.818 0 0 1-.478-.38.99.99 0 0 1-.118-.353h2.255a2.046 2.046 0 0 0 .012-.248c0-.238-.035-.455-.106-.651a1.533 1.533 0 0 0-.296-.507zM28.575 27.816a.872.872 0 0 1-.478.514.915.915 0 0 1-.376.076.918.918 0 0 1-.387-.078.861.861 0 0 1-.288-.21.931.931 0 0 1-.181-.311 1.117 1.117 0 0 1-.064-.38c0-.133.021-.26.064-.378a.93.93 0 0 1 .181-.31.86.86 0 0 1 .288-.21.92.92 0 0 1 .387-.079c.138 0 .264.025.376.075a.87.87 0 0 1 .478.515c.044.119.067.248.067.388s-.023.27-.067.388zm.025-1.544a1.193 1.193 0 0 0-.395-.326 1.207 1.207 0 0 0-.563-.123 1.496 1.496 0 0 0-1.083.452 1.54 1.54 0 0 0-.325.508 1.722 1.722 0 0 0-.117.645c0 .234.039.448.117.645a1.49 1.49 0 0 0 1.407.96c.22 0 .407-.04.564-.121.157-.08.289-.19.395-.325v.366h.666v-3.05H28.6v.37zM16.064 28.405a.547.547 0 0 1-.19-.031.392.392 0 0 1-.152-.1.487.487 0 0 1-.103-.177.787.787 0 0 1-.039-.261v-1.328h1.07v-.605h-1.07v-.924h-.668v.924h-.608v.605h.608v1.34c0 .406.096.704.288.897.192.192.461.288.807.288.193 0 .367-.03.52-.09a2.21 2.21 0 0 0 .285-.133l-.227-.557a1.69 1.69 0 0 1-.204.092.897.897 0 0 1-.317.06zM22.39 25.823c-.187 0-.356.034-.507.102-.15.068-.277.232-.379.378v-.4H20.9v3.05h.61v-1.678c0-.13.019-.245.055-.347a.75.75 0 0 1 .15-.258.62.62 0 0 1 .229-.16.775.775 0 0 1 .293-.053 1.303 1.303 0 0 1 .394.064l.197-.636a1.223 1.223 0 0 0-.163-.041 1.674 1.674 0 0 0-.276-.02M31.64 25.823c-.186 0-.355.034-.506.102-.15.068-.277.232-.379.378v-.4h-.604v3.05h.61v-1.678c0-.13.019-.245.055-.347a.75.75 0 0 1 .15-.258.62.62 0 0 1 .229-.16.775.775 0 0 1 .293-.053 1.303 1.303 0 0 1 .395.064l.196-.636a1.223 1.223 0 0 0-.163-.041 1.674 1.674 0 0 0-.275-.02M34.723 27.816a.871.871 0 0 1-.478.514.916.916 0 0 1-.375.076.919.919 0 0 1-.387-.078.861.861 0 0 1-.288-.21.931.931 0 0 1-.181-.311 1.117 1.117 0 0 1-.064-.38c0-.133.021-.26.064-.378a.93.93 0 0 1 .181-.31.86.86 0 0 1 .288-.21.92.92 0 0 1 .387-.079c.138 0 .263.025.376.075a.87.87 0 0 1 .29.206c.08.087.143.19.187.309.045.119.067.248.067.388s-.022.27-.067.388zm.026-3.153v1.61a1.194 1.194 0 0 0-.395-.327 1.207 1.207 0 0 0-.564-.123 1.495 1.495 0 0 0-1.082.452 1.54 1.54 0 0 0-.325.508 1.72 1.72 0 0 0-.118.645c0 .234.04.448.118.645a1.489 1.489 0 0 0 1.407.96c.219 0 .407-.04.564-.121.157-.08.289-.19.395-.325v.366h.665v-4.29h-.665zM24.285 26.522a.994.994 0 0 1 .379-.071c.149 0 .288.023.416.071.125.046.232.11.323.193l.32-.533a1.63 1.63 0 0 0-.405-.236 1.718 1.718 0 0 0-.654-.123c-.236 0-.454.041-.655.123-.2.081-.373.194-.519.337-.145.144-.26.313-.342.508a1.614 1.614 0 0 0-.124.637c0 .23.041.441.124.637a1.559 1.559 0 0 0 .861.845c.2.082.419.123.655.123.235 0 .453-.041.654-.123.15-.061.286-.14.406-.236l-.32-.533a1 1 0 0 1-.324.193 1.186 1.186 0 0 1-.416.071.991.991 0 0 1-.38-.071.894.894 0 0 1-.503-.51 1.043 1.043 0 0 1-.073-.396c0-.144.025-.276.073-.396a.896.896 0 0 1 .503-.51z" fill="#FFF"/><g transform="translate(36.422 28.392)"><mask id="b" fill="#fff"><use xlink:href="#a"/></mask><path d="M.353.355v.05h.058A.056.056 0 0 0 .44.4C.445.396.449.39.449.38.449.373.445.366.439.362A.05.05 0 0 0 .41.355H.353zm.06-.067c.038 0 .066.008.086.025.02.017.03.04.03.068C.528.403.52.42.506.436a.107.107 0 0 1-.061.028l.086.1H.439L.362.466H.353v.096H.276V.288h.137zM.395.65A.217.217 0 0 0 .553.585a.227.227 0 0 0 0-.318.228.228 0 0 0-.247-.048.217.217 0 0 0-.137.207.224.224 0 0 0 .226.225zm0-.536a.317.317 0 0 1 .319.31.315.315 0 0 1-.32.312.326.326 0 0 1-.228-.092.312.312 0 0 1-.068-.34.31.31 0 0 1 .17-.166.326.326 0 0 1 .127-.024z" fill="#1D1D1B" mask="url(#b)"/></g><g transform="translate(0 .08)"><mask id="d" fill="#fff"><use xlink:href="#c"/></mask><path d="M14.262 11.564c0-3.655 1.707-6.909 4.365-9.014a11.444 11.444 0 0 0-7.13-2.483C5.146.067 0 5.215 0 11.564S5.147 23.06 11.496 23.06c2.695 0 5.171-.93 7.131-2.482a11.472 11.472 0 0 1-4.365-9.014" fill="#BCBEC0" mask="url(#d)"/></g><path d="M18.627 20.658a11.473 11.473 0 0 0 4.366-9.014c0-3.655-1.708-6.909-4.366-9.014a11.472 11.472 0 0 0-4.365 9.014c0 3.654 1.707 6.908 4.365 9.014z" fill="#DCDDDE"/><path d="M37.196 17.933v-.347l-.097.3h-.107l-.096-.299v.346h-.1v-.5h.143l.107.32.106-.32h.144v.5h-.1zm-.721 0v-.392h-.136v-.108h.373v.108h-.137v.392h-.1z" fill="#F59F00"/><path d="M25.758.147c-2.695 0-5.17.93-7.13 2.483a11.473 11.473 0 0 1 4.365 9.014c0 3.654-1.708 6.908-4.366 9.014a11.443 11.443 0 0 0 7.131 2.482c6.35 0 11.496-5.147 11.496-11.496 0-6.35-5.147-11.497-11.496-11.497" fill="#FFF"/></g></svg>
