<svg width="223" height="79" viewBox="0 0 223 79" xmlns="http://www.w3.org/2000/svg" xmlns:xlink="http://www.w3.org/1999/xlink">
  <defs>
    <path id="path-1" d="M.0161.5595h21.9355v11.8967H.016z"/>
    <path id="path-3" d="M.7845.0251h172.407V58.78H.7845z"/>
    <path id="path-5" d="M0 .2653h21.9585v11.8719H0z"/>
    <path id="path-7" d="M.6588.4872h18.8236v16.9982H.6588z"/>
  </defs>
  <g id="Page-1" fill="none" fill-rule="evenodd" opacity=".3486">
    <g id="EVENT---search-results-Copy-12" transform="translate(-116 -1887)">
      <g id="03.-NUMBERS" transform="translate(0 1659)">
        <g id="Group-43-Copy" transform="translate(116 228)">
          <g id="Group-3" transform="translate(201 17)">
            <mask id="mask-2" fill="#fff">
              <use xlink:href="#path-1"/>
            </mask>
            <path d="M.0161 5.3893c6.0284 8.8873 15.255 8.8873 21.9372 2.8128-2.7673-6.37-10.2968-9.3459-16.824-6.6466C3.12 2.3875 1.3599 3.7088.0162 5.3893" id="Fill-1" fill="#1788DA" mask="url(#mask-2)"/>
          </g>
          <path d="M184 27.6816c1.7246 9.3663 8.574 18.4112 17 15.8905-.5913-12.9249-9.9536-18.6583-17-15.8905" id="Fill-4" fill="#1788DA"/>
          <path d="M169 29.2055c2.6855 8.6472 10.0161 17.4943 18 14.0204-1.8145-12.5958-11.1774-17.7941-18-14.0204" id="Fill-6" fill="#1788DA"/>
          <path d="M153 32.0543c3.7786 8.1075 11.5662 16.0348 19 11.7365-3.3013-12.9461-12.9414-16.5752-19-11.7365" id="Fill-8" fill="#1788DA"/>
          <path d="M139 38.1668c4.7226 6.5167 13.412 13.182 20 7.9538-4.961-11.8192-15.0413-13.7767-20-7.9538" id="Fill-10" fill="#1788DA"/>
          <path d="M206 .9412C196.0348-2.525 185.8142 3.863 184 15.5c10.425 2.5255 19.1382-4.853 22-14.5588" id="Fill-12" fill="#1788DA"/>
          <path d="M187 .461c-9.7138-2.4018-18.8551 4.8039-19 16.405 9.6662 1.273 17.1712-6.7013 19-16.405" id="Fill-14" fill="#1788DA"/>
          <path d="M168 3.1069C156.8598 1.9096 148.6246 10.937 150.1915 22c10.1976-.0958 17.2116-9.1951 17.8085-18.8931" id="Fill-16" fill="#1788DA"/>
          <path d="M147.9148 6c-10.4546 0-18.9117 10.3156-14.8965 22 10.4268-2.1267 15.7298-12.3689 14.8965-22" id="Fill-18" fill="#1788DA"/>
          <g id="Group-22" transform="translate(25 20)">
            <mask id="mask-4" fill="#fff">
              <use xlink:href="#path-3"/>
            </mask>
            <path d="M173.0445 3.3086l.147-2.715a142.8339 142.8339 0 0 0-30.9303 1.3949c-21.3457 3.3377-41.0714 13.1018-55.0404 29.616-14.1896-16.8878-34.1628-26.602-55.4104-29.89A142.4503 142.4503 0 0 0 .7844.3196l.1716 2.715c32.4228-1.893 63.7183 5.8037 84.5248 30.8117-5.8057 7.181-10.2341 15.4008-13.0622 24.2358l2.4507.6999c2.6908-8.292 6.8423-16.0136 12.2535-22.7936 5.3474 6.7427 9.4499 14.4144 12.1065 22.6417l2.5732-.6726c-2.784-8.8-7.1732-16.9875-12.9397-24.1361 20.9535-24.9582 52.271-32.356 84.1817-30.5128" id="Fill-20" fill="#1788DA" mask="url(#mask-4)"/>
          </g>
          <g id="Group-25" transform="translate(0 17)">
            <mask id="mask-6" fill="#fff">
              <use xlink:href="#path-5"/>
            </mask>
            <path d="M-.0005 7.8948c6.6821 6.0509 15.9305 6.0745 21.959-2.8364-4.4015-5.4553-12.5-6.3936-18.0877-2.0942-1.6923 1.3-3.024 2.9971-3.8713 4.9306" id="Fill-23" fill="#1788DA" mask="url(#mask-6)"/>
          </g>
          <path d="M39 15.499C37.1858 3.7396 26.8885-2.4989 17 .9422c2.8873 9.7292 11.5238 17.0818 22 14.5566" id="Fill-26" fill="#1788DA"/>
          <g id="Group-30" transform="translate(36)">
            <mask id="mask-8" fill="#fff">
              <use xlink:href="#path-7"/>
            </mask>
            <path d="M19.4824 17.3515C19.2706 5.7835 10.0706-1.4885.6588.9595c1.6706 9.696 9.153 17.664 18.8236 16.392" id="Fill-28" fill="#1788DA" mask="url(#mask-8)"/>
          </g>
          <path d="M72.806 22C74.3729 11.0323 66.2657 1.9085 55 3.1059 55.6217 12.7804 62.6099 21.9042 72.806 22" id="Fill-31" fill="#1788DA"/>
          <path d="M89.9842 28c3.9462-11.5133-4.1486-22-14.8993-22-.8095 9.2889 4.1738 19.7267 14.8993 22" id="Fill-33" fill="#1788DA"/>
          <path d="M20 43.5948c8.6232 2.4755 15.3493-6.8323 17-15.9173-6.8246-2.723-16.3348 2.7973-17 15.9173" id="Fill-35" fill="#1788DA"/>
          <path d="M36 43.2417c8.008 3.4268 15.3145-5.3779 18-14.0324-6.7984-3.777-16.1855 1.4007-18 14.0324" id="Fill-37" fill="#1788DA"/>
          <path d="M70 32.0447c-6.0325-4.8166-15.6987-1.2106-19 11.7452 7.4338 4.3015 15.2237-3.6317 19-11.7452" id="Fill-39" fill="#1788DA"/>
          <path d="M64 46.1182c6.5407 5.2196 15.2302-1.3919 20-7.9785-4.699-5.5179-14.876-4.3-20 7.9785" id="Fill-41" fill="#1788DA"/>
        </g>
      </g>
    </g>
  </g>
</svg>