<svg width="66" height="16" xmlns="http://www.w3.org/2000/svg"><g fill="none" fill-rule="evenodd"><path d="M24.327 3.553h-3.6a.5.5 0 0 0-.495.422l-1.456 9.232a.3.3 0 0 0 .297.347h1.719a.5.5 0 0 0 .494-.423l.393-2.49a.5.5 0 0 1 .494-.423h1.14c2.371 0 3.74-1.148 4.097-3.422.161-.995.007-1.777-.459-2.324-.511-.601-1.419-.92-2.624-.92m.415 3.373c-.196 1.292-1.184 1.292-2.138 1.292h-.543l.38-2.413a.3.3 0 0 1 .297-.253h.25c.65 0 1.263 0 1.58.37.189.221.246.55.174 1.004M35.089 6.883h-1.724a.3.3 0 0 0-.297.253l-.076.482-.12-.174c-.374-.542-1.206-.723-2.037-.723-1.905 0-3.532 1.443-3.849 3.467-.165 1.01.07 1.975.642 2.649.526.619 1.277.877 2.172.877 1.535 0 2.386-.987 2.386-.987l-.077.479a.3.3 0 0 0 .296.347h1.553a.5.5 0 0 0 .494-.423l.932-5.9a.299.299 0 0 0-.295-.347m-2.403 3.356c-.167.984-.948 1.646-1.945 1.646-.501 0-.901-.16-1.158-.465-.255-.302-.352-.732-.27-1.211.155-.977.95-1.66 1.931-1.66.49 0 .888.163 1.15.47.263.31.367.743.292 1.22M44.27 6.883h-1.732a.502.502 0 0 0-.414.22l-2.39 3.52-1.012-3.383a.502.502 0 0 0-.48-.357h-1.703a.3.3 0 0 0-.285.397l1.909 5.6-1.794 2.533a.3.3 0 0 0 .244.474h1.73a.5.5 0 0 0 .412-.215l5.762-8.318a.3.3 0 0 0-.246-.47" fill="#DCDDDE"/><path d="M50.007 3.553h-3.6a.5.5 0 0 0-.495.422l-1.456 9.232a.3.3 0 0 0 .296.347H46.6a.35.35 0 0 0 .345-.296l.413-2.617a.5.5 0 0 1 .494-.423h1.14c2.372 0 3.74-1.148 4.098-3.422.161-.995.006-1.777-.46-2.324-.511-.601-1.418-.92-2.623-.92m.415 3.373c-.196 1.292-1.183 1.292-2.138 1.292h-.543l.382-2.413a.299.299 0 0 1 .296-.253h.249c.65 0 1.263 0 1.58.37.189.221.246.55.174 1.004M60.768 6.883h-1.723a.299.299 0 0 0-.296.253l-.076.482-.121-.174c-.373-.542-1.205-.723-2.036-.723-1.905 0-3.532 1.443-3.848 3.467-.165 1.01.068 1.975.641 2.649.527.619 1.277.877 2.172.877 1.535 0 2.386-.987 2.386-.987l-.077.479a.3.3 0 0 0 .297.347h1.553a.5.5 0 0 0 .493-.423l.933-5.9a.3.3 0 0 0-.298-.347m-2.403 3.356c-.165.984-.948 1.646-1.945 1.646-.5 0-.9-.16-1.158-.465-.254-.302-.35-.732-.27-1.211.156-.977.95-1.66 1.932-1.66.49 0 .887.163 1.15.47.263.31.367.743.291 1.22M62.8 3.806l-1.477 9.401a.3.3 0 0 0 .296.347h1.486a.5.5 0 0 0 .494-.423l1.457-9.232a.3.3 0 0 0-.296-.347h-1.663a.3.3 0 0 0-.296.254" fill="#FFF"/><path d="M3.825 15.348l.275-1.75-.613-.013H.56L2.594.68A.166.166 0 0 1 2.759.54h4.938c1.64 0 2.77.341 3.361 1.014.277.316.454.646.539 1.01.09.38.09.836.003 1.392l-.006.04v.356l.277.157c.233.124.419.265.56.427.238.27.39.614.456 1.02.066.419.044.917-.065 1.48-.127.65-.33 1.214-.607 1.677-.253.425-.577.779-.96 1.052-.367.26-.802.458-1.294.584a6.456 6.456 0 0 1-1.618.187H7.96c-.275 0-.542.099-.751.276-.21.182-.35.429-.392.7l-.029.157-.486 3.082-.022.113c-.006.036-.016.054-.03.066a.081.081 0 0 1-.051.019H3.825z" fill="#253B80"/><path d="M12.133 4.036c-.015.094-.031.19-.05.29-.652 3.343-2.88 4.498-5.725 4.498H4.91a.704.704 0 0 0-.695.596l-.742 4.704-.21 1.334a.37.37 0 0 0 .366.428h2.57a.618.618 0 0 0 .61-.521l.026-.13.483-3.07.031-.17a.618.618 0 0 1 .611-.521h.384c2.49 0 4.439-1.011 5.008-3.936.238-1.222.115-2.242-.514-2.96a2.458 2.458 0 0 0-.704-.542" fill="#FFF"/><path d="M11.145 3.686a5.835 5.835 0 0 0-.326-.062 8.035 8.035 0 0 0-1.277-.093h-3.87a.615.615 0 0 0-.61.522l-.824 5.215-.024.152a.704.704 0 0 1 .696-.596h1.448c2.846 0 5.074-1.155 5.725-4.498.02-.1.036-.196.05-.29a3.47 3.47 0 0 0-.681-.271 5.111 5.111 0 0 0-.307-.08z" fill="#BCBEC0"/><path d="M5.061 4.053a.615.615 0 0 1 .61-.522h3.87c.46 0 .887.03 1.278.093a5.111 5.111 0 0 1 .78.186c.191.064.37.14.535.226.193-1.235-.002-2.077-.67-2.838C10.728.358 9.398 0 7.698 0H2.76a.706.706 0 0 0-.698.596L.005 13.634c-.04.257.159.49.419.49h3.048l.766-4.856.823-5.215z" fill="#DCDDDE"/></g></svg>
