<svg width="47" height="15" xmlns="http://www.w3.org/2000/svg"><g fill="none" fill-rule="evenodd"><path fill="#FFF" d="M18.898.147l-2.383 13.861h3.81L22.707.148zM34.034.611c-.75-.28-1.927-.58-3.397-.58-3.746 0-6.385 1.875-6.407 4.563-.021 1.986 1.884 3.095 3.321 3.756 1.476.678 1.972 1.11 1.965 1.715-.01.927-1.178 1.35-2.268 1.35-1.517 0-2.323-.209-3.568-.725l-.489-.22-.532 3.095c.886.386 2.523.72 4.223.738 3.985 0 6.572-1.854 6.601-4.724.015-1.573-.995-2.77-3.183-3.757-1.324-.64-2.136-1.066-2.127-1.714 0-.575.686-1.19 2.17-1.19 1.24-.018 2.138.25 2.838.53l.34.16.513-2.997M39.081 9.196c.314-.796 1.51-3.865 1.51-3.865-.022.037.312-.8.503-1.32l.256 1.193.878 3.992H39.08zM43.756.284h-2.93c-.907 0-1.586.246-1.985 1.147l-5.63 12.672h3.98s.652-1.704.799-2.078l4.855.006c.114.483.461 2.072.461 2.072h3.518L43.756.284zM13.316.28L9.604 9.71 9.21 7.794c-.69-2.21-2.844-4.602-5.25-5.8l3.393 12.092 4.011-.004L17.332.28h-4.016"/><path d="M6.161.272H.048L0 .56c4.756 1.145 7.903 3.91 9.209 7.234L7.879 1.44C7.65.564 6.986.303 6.162.272" fill="#BCBEC0"/></g></svg>
